<?xml version="1.0" standalone="no"?>
<!DOCTYPE svg PUBLIC "-//W3C//DTD SVG 20010904//EN"
 "http://www.w3.org/TR/2001/REC-SVG-20010904/DTD/svg10.dtd">
<svg version="1.0" xmlns="http://www.w3.org/2000/svg"
 width="120" height="120" viewBox="0 0 375.000000 375.000000"
 preserveAspectRatio="xMidYMid meet">

<g transform="translate(0.000000,375.000000) scale(0.100000,-0.100000)"
fill="#0756e9" stroke="none">
<path d="M790 2175 c-47 -47 -80 -85 -75 -85 14 0 170 158 164 164 -3 3 -43
-33 -89 -79z"/>
<path d="M825 2140 c-43 -44 -76 -83 -72 -87 8 -7 167 145 167 159 0 19 -20 3
-95 -72z"/>
<path d="M857 2101 c-44 -43 -75 -81 -70 -84 5 -3 47 32 94 79 46 46 77 84 69
84 -8 -1 -50 -36 -93 -79z"/>
<path d="M901 2066 c-46 -46 -79 -86 -74 -89 12 -8 167 147 162 162 -2 6 -42
-26 -88 -73z"/>
<path d="M935 2030 c-43 -44 -76 -83 -72 -87 8 -7 167 145 167 159 0 19 -20 3
-95 -72z"/>
<path d="M2070 2101 c-106 -22 -150 -90 -119 -179 12 -36 54 -65 119 -82 25
-7 53 -19 63 -27 23 -21 22 -60 -2 -73 -24 -13 -86 -13 -129 -1 -30 9 -34 8
-42 -15 -19 -49 -13 -62 33 -70 23 -4 68 -7 99 -7 129 1 206 105 148 200 -21
35 -48 51 -127 77 -35 12 -54 24 -59 39 -16 51 95 79 149 37 l25 -20 11 46 c6
25 9 49 6 54 -11 17 -126 31 -175 21z"/>
<path d="M1626 2076 c3 -8 -16 -74 -41 -148 -26 -73 -58 -164 -71 -201 l-23
-68 51 3 51 3 17 50 c16 48 18 50 58 53 35 3 42 7 51 34 16 45 15 47 -27 50
l-38 3 24 78 c14 43 26 76 28 74 2 -1 25 -79 52 -172 l49 -170 51 -3 c29 -2
52 0 52 4 0 4 -25 86 -56 183 -30 97 -60 191 -65 209 l-11 32 -78 0 c-65 0
-78 -3 -74 -14z"/>
<path d="M2370 2061 c0 -25 -62 -337 -76 -383 -5 -16 2 -18 44 -18 l50 0 10
48 c6 26 20 101 32 167 12 66 23 121 25 123 3 4 7 -14 41 -190 l28 -148 77 0
77 0 16 73 c9 39 25 114 35 166 11 51 21 95 23 97 2 2 17 -73 32 -166 l29
-170 50 0 c49 0 49 0 44 28 -3 15 -20 111 -38 215 l-34 187 -82 0 -83 0 0 -30
c0 -16 -14 -91 -31 -167 -28 -128 -38 -160 -40 -137 0 5 -15 81 -32 169 l-32
160 -83 3 -82 3 0 -30z"/>
<path d="M2968 1875 l3 -215 133 0 134 0 11 31 c6 18 11 36 11 40 0 5 -42 10
-92 11 l-93 3 -3 173 -2 172 -53 0 -52 0 3 -215z"/>
<path d="M1087 2033 c-3 -5 32 -47 79 -94 46 -46 84 -77 84 -69 0 20 -156 175
-163 163z"/>
<path d="M640 2022 c0 -14 157 -162 164 -155 7 7 -142 163 -156 163 -5 0 -8
-4 -8 -8z"/>
<path d="M607 1993 c-8 -12 150 -169 160 -160 4 4 -29 44 -74 89 -44 44 -83
76 -86 71z"/>
<path d="M1050 1989 c0 -19 145 -162 160 -157 6 2 -28 41 -75 88 -47 47 -85
78 -85 69z"/>
<path d="M568 1955 c-3 -4 30 -42 75 -86 44 -43 83 -77 86 -74 3 3 -31 42 -75
86 -44 44 -83 77 -86 74z"/>
<path d="M1010 1952 c0 -14 159 -166 167 -159 4 4 -29 43 -72 87 -75 75 -95
91 -95 72z"/>
<path d="M810 1932 c0 -5 9 -17 20 -27 25 -23 25 -33 -2 -62 -31 -33 -16 -40
17 -7 l26 26 30 -28 c16 -15 32 -25 35 -21 3 3 -6 17 -21 31 -22 20 -25 28
-16 45 6 11 19 24 29 30 9 5 13 13 9 17 -4 4 -20 -5 -35 -19 l-28 -27 -24 25
c-24 25 -40 32 -40 17z"/>
<path d="M530 1912 c0 -14 156 -163 163 -155 4 4 -27 42 -70 85 -73 73 -93 89
-93 70z"/>
<path d="M1050 1835 c46 -46 86 -82 89 -79 6 6 -150 164 -164 164 -5 0 28 -38
75 -85z"/>
<path d="M937 1883 c-3 -5 31 -47 77 -92 46 -46 86 -79 89 -74 3 5 -31 47 -77
92 -46 46 -86 79 -89 74z"/>
<path d="M565 1800 c44 -44 84 -80 90 -80 5 0 -26 36 -70 80 -44 44 -84 80
-90 80 -5 0 26 -36 70 -80z"/>
<path d="M787 1732 c-43 -43 -74 -81 -70 -85 7 -8 163 141 163 155 0 19 -20 3
-93 -70z"/>
<path d="M825 1690 c-44 -44 -75 -80 -70 -80 6 0 46 36 90 80 44 44 75 80 70
80 -6 0 -46 -36 -90 -80z"/>
<path d="M865 1660 c-44 -44 -76 -83 -72 -87 4 -4 44 29 89 74 44 44 76 83 71
86 -5 3 -45 -30 -88 -73z"/>
<path d="M903 1620 c-45 -44 -78 -82 -74 -84 9 -6 167 151 160 158 -3 3 -42
-30 -86 -74z"/>
<path d="M937 1582 c-43 -43 -74 -81 -70 -85 7 -8 163 141 163 155 0 19 -20 3
-93 -70z"/>
</g>
</svg>
