<?xml version="1.0" standalone="no"?>
<!DOCTYPE svg PUBLIC "-//W3C//DTD SVG 20010904//EN"
 "http://www.w3.org/TR/2001/REC-SVG-20010904/DTD/svg10.dtd">
<svg version="1.0" xmlns="http://www.w3.org/2000/svg"
 width="120" height="120" viewBox="0 0 375.000000 375.000000"
 preserveAspectRatio="xMidYMid meet">

<g transform="translate(0.000000,375.000000) scale(0.100000,-0.100000)"
fill="#000000" stroke="none">
<path d="M1791 2828 c-64 -43 -69 -61 -111 -396 -21 -170 -42 -341 -46 -380
l-7 -72 69 0 69 0 32 337 c32 334 40 376 68 339 6 -8 23 -149 39 -313 15 -164
30 -313 33 -330 l5 -33 70 0 70 0 -6 28 c-3 15 -24 182 -46 372 -44 367 -54
411 -107 445 -43 29 -93 30 -132 3z"/>
<path d="M1223 1890 c-110 -16 -195 -119 -197 -238 -1 -107 56 -162 169 -162
141 1 239 99 240 242 0 52 -4 73 -21 95 -40 54 -107 76 -191 63z m69 -107 c37
-33 16 -152 -33 -187 -56 -39 -109 -7 -109 66 0 104 83 175 142 121z"/>
<path d="M2440 1888 c-62 -11 -117 -53 -153 -117 -40 -70 -45 -172 -11 -218
35 -48 79 -64 161 -61 61 3 78 8 115 34 24 16 53 48 66 71 l22 41 -52 4 c-48
3 -55 0 -85 -29 -36 -37 -81 -44 -107 -17 -19 18 -21 89 -5 131 29 76 105 100
137 43 15 -27 22 -30 70 -30 51 0 52 1 52 30 0 40 -18 76 -47 96 -33 21 -108
32 -163 22z"/>
<path d="M2863 1890 c-110 -16 -195 -119 -197 -238 -1 -106 57 -162 169 -162
116 0 209 72 235 182 36 148 -53 241 -207 218z m71 -106 c20 -19 21 -93 2
-138 -40 -95 -146 -85 -146 14 0 43 32 114 57 129 27 15 69 13 87 -5z"/>
<path d="M296 1879 c-4 -13 -66 -363 -66 -374 0 -10 259 -5 287 6 41 15 72 48
82 86 11 39 -2 88 -26 97 -12 5 -9 13 17 42 39 45 39 96 -1 126 -34 26 -285
40 -293 17z m188 -85 c19 -7 21 -35 4 -52 -7 -7 -31 -12 -54 -12 -44 0 -45 2
-28 58 4 13 51 16 78 6z m-6 -143 c37 -23 -14 -71 -75 -71 -35 0 -39 10 -27
58 5 18 13 22 48 22 22 0 47 -4 54 -9z"/>
<path d="M670 1818 c-7 -40 -22 -128 -35 -195 l-22 -123 63 0 62 0 12 65 12
66 47 -3 46 -3 3 -62 3 -63 58 0 58 0 6 65 c7 75 3 92 -26 101 -20 6 -20 7 6
26 54 40 73 116 40 157 -21 26 -104 40 -235 41 l-86 0 -12 -72z m211 -28 c21
-12 25 -40 7 -58 -14 -14 -108 -17 -108 -3 0 5 3 23 6 40 6 27 10 31 41 31 19
0 43 -5 54 -10z"/>
<path d="M1573 1858 c-11 -18 -46 -82 -78 -143 -32 -60 -71 -134 -87 -162
l-29 -53 60 0 c56 0 62 2 73 25 11 24 15 26 77 23 60 -3 66 -5 69 -25 3 -21 9
-23 63 -23 50 0 59 3 59 18 -1 9 -15 96 -33 192 l-32 175 -62 3 c-59 3 -61 2
-80 -30z m69 -175 l5 -53 -38 0 c-22 0 -39 4 -39 10 0 5 12 34 27 65 30 61 38
58 45 -22z"/>
<path d="M1886 1864 c-3 -16 -17 -94 -31 -174 -14 -80 -27 -155 -30 -167 -5
-23 -4 -23 107 -23 62 0 130 5 150 10 85 24 148 118 148 223 0 117 -39 145
-219 154 l-119 6 -6 -29z m212 -91 c17 -23 9 -94 -16 -137 -20 -34 -94 -68
-111 -51 -5 6 -1 50 10 110 10 55 18 102 19 104 1 12 86 -11 98 -26z"/>
<path d="M3146 1873 c-5 -18 -66 -356 -66 -367 0 -3 24 -6 54 -6 l54 0 12 53
c6 28 14 81 17 116 8 80 19 60 27 -49 10 -120 10 -120 60 -120 42 0 44 1 64
48 44 102 93 195 87 167 -4 -16 -13 -61 -21 -100 -8 -38 -16 -80 -19 -92 -5
-22 -2 -23 53 -23 l57 0 29 168 c15 92 30 179 33 195 l6 27 -75 0 -75 0 -58
-122 -58 -123 -8 55 c-4 30 -10 85 -14 123 l-7 67 -73 0 c-62 0 -75 -3 -79
-17z"/>
<path d="M3615 1574 c-18 -19 -17 -66 3 -70 7 -1 8 0 2 3 -14 6 -13 50 1 59 9
5 10 -1 5 -22 -5 -21 -4 -25 4 -14 9 13 11 13 19 0 7 -10 6 -17 -2 -23 -8 -5
-5 -7 8 -5 22 4 41 47 32 72 -8 21 -51 21 -72 0z m63 -18 c2 -10 -1 -23 -8
-30 -9 -8 -10 -5 -5 16 6 22 3 27 -17 31 -22 5 -22 5 2 4 15 -1 26 -9 28 -21z"/>
<path d="M592 1429 c-33 -4 -99 -29 -180 -68 l-127 -61 -113 0 -112 0 0 -56 0
-56 133 4 132 4 105 51 c130 63 179 77 252 69 83 -8 148 -36 268 -116 178
-117 282 -142 420 -101 62 19 82 31 130 79 38 39 69 82 93 134 21 43 37 80 37
83 0 3 -33 5 -72 5 l-73 0 -38 -75 c-44 -85 -75 -111 -143 -124 -96 -18 -197
14 -347 110 -158 102 -252 132 -365 118z"/>
<path d="M2993 1429 c-70 -12 -138 -43 -262 -122 -132 -84 -195 -108 -286
-109 -108 -1 -148 27 -209 150 l-26 52 -70 0 c-46 0 -70 -4 -70 -11 0 -25 70
-156 105 -196 46 -54 141 -101 220 -109 113 -12 207 20 354 118 40 28 103 64
140 81 58 28 76 32 151 32 83 -1 88 -2 210 -60 l125 -60 158 -3 157 -3 0 55 0
56 -142 0 -141 0 -108 55 c-140 71 -213 88 -306 74z"/>
</g>
</svg>
